<svg width="197" height="197" viewBox="0 0 197 197" fill="none" xmlns="http://www.w3.org/2000/svg">
<path d="M18.4688 131.128V105.272C18.4688 60.3312 54.175 24.625 98.5 24.625C142.825 24.625 178.531 60.3312 178.531 105.272V131.128" stroke="#46EFE5" stroke-miterlimit="10" stroke-linecap="round" stroke-linejoin="round"/>
<path d="M147.75 104.656V166.219C164.987 166.219 178.531 152.675 178.531 135.438C178.531 118.2 164.987 104.656 147.75 104.656Z" fill="url(#paint0_linear_0_1)" stroke="#46EFE5" stroke-miterlimit="10" stroke-linecap="round" stroke-linejoin="round"/>
<path d="M49.25 166.219V104.656C32.0125 104.656 18.4688 118.2 18.4688 135.438C18.4688 152.675 32.0125 166.219 49.25 166.219Z" fill="url(#paint1_linear_0_1)" stroke="#46EFE5" stroke-miterlimit="10" stroke-linecap="round" stroke-linejoin="round"/>
<path d="M119.033 132.423L98.2463 120.659L98 120.519L97.7537 120.659L76.7162 132.565L75.9444 133.002L76.7177 133.436L97.7552 145.252L98.0001 145.389L98.2449 145.252L119.031 133.571L119.537 133.857V133V132.994V132.139L119.033 132.423ZM76.3704 135.986L75.7039 136.691C80.3132 143.893 85.7122 152.295 91.0714 160.636C93.2664 164.053 95.4547 167.458 97.5793 170.767L97.9999 171.422L98.4207 170.767C100.157 168.064 101.936 165.295 103.727 162.508C109.476 153.561 115.342 144.431 120.296 136.691L119.63 135.986C112.416 140.049 105.206 144.12 98 148.197C90.7942 144.12 83.5843 140.049 76.3704 135.986ZM98.0028 117.818L119.631 129.89L120.295 129.182L98.4203 95.2292L98 94.5768L97.5797 95.2292L75.7047 129.185L76.3687 129.893L98.0028 117.818ZM98 182.5C70.6605 182.5 48.5 160.339 48.5 133C48.5 105.661 70.6605 83.5 98 83.5C125.339 83.5 147.5 105.661 147.5 133C147.5 160.339 125.339 182.5 98 182.5Z" stroke="#46EFE5"/>
<path d="M118.969 132.925L97.9656 134.728V121.044L118.966 132.925H118.969ZM97.9656 148.669C104.153 145.169 112.144 140.656 119.803 136.344C113.316 146.475 105.266 158.987 97.9656 170.35V148.669V148.669ZM97.9656 117.203V95.5L119.803 129.391L97.9656 117.203V117.203Z" fill="#46EFE5"/>
<path fill-rule="evenodd" clip-rule="evenodd" d="M97.9656 134.728L118.966 132.925L97.9656 144.722V134.728Z" fill="#42DBD2"/>
<defs>
<linearGradient id="paint0_linear_0_1" x1="163.141" y1="104.656" x2="163.141" y2="166.219" gradientUnits="userSpaceOnUse">
<stop stop-color="#46EFE5"/>
<stop offset="1" stop-color="white" stop-opacity="0.01"/>
</linearGradient>
<linearGradient id="paint1_linear_0_1" x1="33.8594" y1="104.656" x2="33.8594" y2="166.219" gradientUnits="userSpaceOnUse">
<stop stop-color="#46EFE5"/>
<stop offset="1" stop-color="white" stop-opacity="0.01"/>
</linearGradient>
</defs>
</svg>
