<svg width="197" height="197" viewBox="0 0 197 197" fill="none" xmlns="http://www.w3.org/2000/svg">
<path d="M18.4688 131.128V105.272C18.4688 60.3312 54.175 24.625 98.5 24.625C142.825 24.625 178.531 60.3312 178.531 105.272V131.128" stroke="#42DBD2" stroke-width="3" stroke-miterlimit="10" stroke-linecap="round" stroke-linejoin="round"/>
<path d="M147.75 104.656V166.219C164.987 166.219 178.531 152.675 178.531 135.438C178.531 118.2 164.987 104.656 147.75 104.656Z" fill="url(#paint0_linear_0_1)" stroke="#42DBD2" stroke-miterlimit="10" stroke-linecap="round" stroke-linejoin="round"/>
<path d="M49.25 166.219V104.656C32.0125 104.656 18.4688 118.2 18.4688 135.438C18.4688 152.675 32.0125 166.219 49.25 166.219Z" fill="url(#paint1_linear_0_1)" stroke="#42DBD2" stroke-miterlimit="10" stroke-linecap="round" stroke-linejoin="round"/>
<circle cx="98.5" cy="131.5" r="48" stroke="#42DBD2"/>
<line x1="84" y1="100" x2="84" y2="164" stroke="#42DBD2" stroke-width="12"/>
<line x1="111" y1="100" x2="111" y2="164" stroke="#42DBD2" stroke-width="12"/>
<defs>
<linearGradient id="paint0_linear_0_1" x1="163.141" y1="104.656" x2="163.141" y2="166.219" gradientUnits="userSpaceOnUse">
<stop stop-color="#42DBD2"/>
<stop offset="1" stop-color="white" stop-opacity="0"/>
</linearGradient>
<linearGradient id="paint1_linear_0_1" x1="33.8594" y1="104.656" x2="33.8594" y2="166.219" gradientUnits="userSpaceOnUse">
<stop stop-color="#42DBD2"/>
<stop offset="1" stop-color="white" stop-opacity="0"/>
</linearGradient>
</defs>
</svg>
