<svg width="75" height="75" viewBox="0 0 75 75" fill="none" xmlns="http://www.w3.org/2000/svg">
<circle cx="37.5" cy="37.5" r="36" stroke="#B456B4" stroke-width="3"/>
<path d="M57 15.032C39.5358 14.5307 25.2313 20.0913 25.2313 20.0913L25.2209 48.3101C23.4427 47.7008 21.2803 47.5563 19.0841 48.0171C14.3491 49.0103 11.2484 52.4361 12.1586 55.6702C13.0688 58.9043 17.6448 60.7214 22.3792 59.7287C26.8437 58.7923 29.8537 55.6927 29.4205 52.6314V31.5468C29.4205 31.5468 39.5358 28.494 52.6565 27.7286V43.4105C50.8976 42.8291 48.7764 42.6973 46.6203 43.1495C41.8853 44.1422 38.7846 47.568 39.6948 50.8026C40.6045 54.0367 45.1805 55.8534 49.9155 54.8607C54.0499 53.9935 56.938 51.2711 56.9984 48.4419L57 48.4437V15.032V15.032Z" fill="#B456B4"/>
</svg>
