<svg width="100" height="100" viewBox="0 0 100 100" fill="none" xmlns="http://www.w3.org/2000/svg">
<path d="M23.4688 8.78906C22.4245 8.78917 21.423 9.20404 20.6846 9.94244C19.9462 10.6808 19.5314 11.6823 19.5312 12.7266V87.2734C19.5314 88.3177 19.9462 89.3192 20.6846 90.0576C21.423 90.796 22.4245 91.2108 23.4688 91.2109H36.2969C37.3411 91.2108 38.3426 90.796 39.081 90.0576C39.8194 89.3192 40.2343 88.3177 40.2344 87.2734V12.7266C40.2343 11.6823 39.8194 10.6808 39.081 9.94244C38.3426 9.20404 37.3411 8.78917 36.2969 8.78906H23.4688ZM63.7031 8.78906C62.6589 8.78917 61.6574 9.20404 60.919 9.94244C60.1806 10.6808 59.7657 11.6823 59.7656 12.7266V87.2734C59.7657 88.3177 60.1806 89.3192 60.919 90.0576C61.6574 90.796 62.6589 91.2108 63.7031 91.2109H76.5312C77.5755 91.2108 78.577 90.796 79.3154 90.0576C80.0538 89.3192 80.4686 88.3177 80.4688 87.2734V12.7266C80.4686 11.6823 80.0538 10.6808 79.3154 9.94244C78.577 9.20404 77.5755 8.78917 76.5312 8.78906H63.7031Z" fill="#46dbef"/>
</svg>
