<svg width="20" height="20" viewBox="0 0 20 20" fill="none" xmlns="http://www.w3.org/2000/svg">
<path d="M10 20C15.5228 20 20 15.5228 20 10C20 4.47715 15.5228 0 10 0C4.47715 0 0 4.47715 0 10C0 15.5228 4.47715 20 10 20Z" fill="#13B3CA"/>
<path d="M17.0701 2.9292C20.9749 6.83384 20.9752 13.1649 17.0699 17.07C13.1651 20.975 6.83371 20.975 2.92908 17.0703L17.0701 2.9292Z" fill="#10ABB6"/>
<path d="M19.9078 11.3318L17.2054 8.62937L16.9826 8.85198L13.5783 5.44781L13.4018 5.62418L12.9932 5.21558L12.494 5.71477L12.0895 5.31043L11.4389 5.96088L12.2329 6.75471L9.18408 9.80383L6.21281 6.8329L5.56235 7.48318L6.41867 8.33937L5.81606 8.94186L6.79917 9.92497L6.3658 10.3583L7.56347 11.5562L7.36803 11.7518L8.46734 12.8513L7.17605 14.1427L6.21407 13.1809L5.28497 14.11L4.13216 12.957L3.90039 13.189L10.6846 19.9731C15.4426 19.6507 19.2855 16.0016 19.9078 11.3318Z" fill="#0EA2A4"/>
<path d="M15.6321 9.56918C16.4313 9.50335 16.9732 9.1399 17.1819 8.64699C16.8934 8.82412 15.9986 9.0172 15.5044 8.83315C15.4803 8.71729 15.4533 8.60674 15.4267 8.50746C15.0502 7.12461 13.761 6.01095 12.4101 6.1453C12.5194 6.10125 12.6306 6.06002 12.7409 6.02327C12.8895 5.9699 13.7619 5.82783 13.6247 5.51995C13.5088 5.24919 12.443 5.72471 12.2423 5.7869C12.5072 5.68728 12.9453 5.51581 12.9921 5.21143C12.5862 5.26699 12.1878 5.45898 11.8801 5.73813C11.9911 5.6183 12.0755 5.47256 12.0934 5.31564C11.0105 6.00715 10.3781 7.40136 9.86654 8.75391C9.46473 8.36459 9.10858 8.05784 8.78888 7.88764C7.8926 7.40676 6.82093 6.90516 5.13859 6.28074C5.08694 6.83727 5.41377 7.57756 6.35566 8.06966C6.15153 8.04236 5.77879 8.10346 5.47989 8.17481C5.60162 8.81248 5.99836 9.33774 7.07367 9.59192C6.58236 9.62428 6.32849 9.73605 6.09845 9.97698C6.32186 10.4205 6.86793 10.9424 7.84965 10.8352C6.75823 11.3057 7.40489 12.1775 8.29327 12.0474C6.77764 13.6129 4.388 13.4979 3.01587 12.1887C6.59844 17.0704 14.3864 15.0756 15.5465 10.3736C16.4161 10.3808 16.9273 10.0723 17.2442 9.73225C16.7431 9.81736 16.017 9.72955 15.6321 9.56918Z" fill="white"/>
</svg>
